<svg width="100" height="120" viewBox="0 0 100 120" fill="none" xmlns="http://www.w3.org/2000/svg">
  <!-- Tree Canopy -->
  <circle cx="50" cy="40" r="35" fill="#4CAF50" stroke="#000" stroke-width="2"/>
  <circle cx="40" cy="35" r="15" fill="#66BB66" stroke="#000" stroke-width="1"/>
  <circle cx="60" cy="35" r="15" fill="#66BB66" stroke="#000" stroke-width="1"/>
  <circle cx="50" cy="30" r="15" fill="#66BB66" stroke="#000" stroke-width="1"/>
  
  <!-- Trunk -->
  <rect x="45" y="65" width="10" height="40" fill="#8B4513" stroke="#000" stroke-width="2"/>
  
  <!-- Happy Face (Normal State) -->
  <g id="normal-face">
    <circle cx="43" cy="35" r="3" fill="#000"/>
    <circle cx="57" cy="35" r="3" fill="#000"/>
    <path d="M45 45 Q 50 50 55 45" stroke="#000" stroke-width="2" fill="none"/>
  </g>
  
  <!-- Laughing Face (Animated State) -->
  <g id="laughing-face" style="display: none;">
    <!-- Closed laughing eyes -->
    <path d="M40 35 Q 43 33 46 35" stroke="#000" stroke-width="2" fill="none"/>
    <path d="M54 35 Q 57 33 60 35" stroke="#000" stroke-width="2" fill="none"/>
    
    <!-- Laughing mouth with tongue -->
    <ellipse cx="50" cy="48" rx="8" ry="6" fill="#FF69B4" stroke="#000" stroke-width="2"/>
    <path d="M42 48 Q 50 52 58 48" stroke="#000" stroke-width="2" fill="none"/>
    
    <!-- Cheeks -->
    <circle cx="38" cy="42" r="3" fill="#FFB6C1" opacity="0.7"/>
    <circle cx="62" cy="42" r="3" fill="#FFB6C1" opacity="0.7"/>
    
    <!-- Eyebrows (raised in laughter) -->
    <path d="M40 30 Q 43 28 46 30" stroke="#000" stroke-width="1.5" fill="none"/>
    <path d="M54 30 Q 57 28 60 30" stroke="#000" stroke-width="1.5" fill="none"/>
  </g>
</svg>
